<svg width="57" height="22" fill="none" xmlns="http://www.w3.org/2000/svg">
    <path d="m46.48 10.075-3.742 1.318a.556.556 0 0 0-.343.347l-1.292 3.777a.625.625 0 0 0 .453.809.617.617 0 0 0 .342-.021l3.741-1.341a.558.558 0 0 0 .34-.345l1.292-3.755a.624.624 0 0 0-.45-.81.617.617 0 0 0-.342.02zm-2.313 3.944a.804.804 0 0 1-.744-.5.811.811 0 0 1 .587-1.102.803.803 0 0 1 .827.344.81.81 0 0 1-.67 1.258zM35.251 11.939l.028-.021c.097-.084.146-.237.146-.46a1.487 1.487 0 0 0-.54-1.188 1.873 1.873 0 0 0-1.29-.46 1.898 1.898 0 0 0-1.267.46 1.426 1.426 0 0 0-.54 1.168v.584h3.034a.836.836 0 0 0 .429-.083z" fill="#fff"/>
    <path d="m51.977 12.5-1.198-.643a.543.543 0 0 0-.194-.06 6.644 6.644 0 0 0-1.742-3.411 6.606 6.606 0 0 0-3.33-1.875.567.567 0 0 0-.028-.065l-.714-1.351a.538.538 0 0 0-.949 0l-.674 1.26a.617.617 0 0 0-.033.074 6.573 6.573 0 0 0-3.47 1.647c-.286.25-.544.53-.772.835-.084.104-.152.21-.22.314a3.36 3.36 0 0 0-.067-.134c-.25-.462-.78-.963-.78-.963a6.145 6.145 0 0 0-.216-.202c-1.088-.978-2.407-1.473-3.925-1.473-1.391 0-2.63.404-3.68 1.2l-.258.196-.166-.279a1.945 1.945 0 0 0-1.695-.992H26.7v-.75h.832a2.28 2.28 0 0 0 1.813-.843c.381-.477.585-1.071.577-1.682a2.61 2.61 0 0 0-.577-1.661A2.287 2.287 0 0 0 27.533.8h-1.235c-1.387 0-2.634.565-3.608 1.634l-.004.005a5.525 5.525 0 0 0-.53.684l-.25.387-.239-.395a2.73 2.73 0 0 0-.524-.624 2.797 2.797 0 0 0-1.94-.75 2.894 2.894 0 0 0-1.98.75 2.55 2.55 0 0 0-.869 1.94 2.606 2.606 0 0 0 .844 1.92l.024.022c.08.073.162.14.249.204l.343.25-.354.233c-.037.025-.074.05-.11.078l-.167.125-.17-.12a3.282 3.282 0 0 0-.235-.147 3.643 3.643 0 0 0-1.824-.515 2.334 2.334 0 0 0-1.17.288 1.99 1.99 0 0 0-.88 1.036l-.007.018-.699 1.979-.337-1.135a2.056 2.056 0 0 0-.927-1.192 2.75 2.75 0 0 0-2.601 0 2.055 2.055 0 0 0-.924 1.184l-.083.287-.259.853-.7-1.994a1.986 1.986 0 0 0-.88-1.036 2.335 2.335 0 0 0-1.17-.288 3.671 3.671 0 0 0-1.83.505c-.485.265-1.291.87-1.291 1.977.002.324.075.644.213.936l.006.017 3.177 8.178c.197.518.759 1.385 2.32 1.385.713 0 1.975-.181 2.428-1.395l.027-.076.275-.784.308.878.008.022c.46 1.179 1.688 1.355 2.379 1.355.676 0 1.878-.176 2.338-1.355l1.83-4.715v3.608c0 .903.59 1.465.942 1.72l.07.048a3.096 3.096 0 0 0 1.69.464 2.97 2.97 0 0 0 2.15-.876l.219-.225.208.235c.152.17.327.317.522.436.5.295 1.07.444 1.65.431.57.01 1.132-.13 1.63-.407.333-.189 1.114-.74 1.114-1.804v-5.737h1.08l-.022.313c-.009.13-.014.263-.014.396v1.774c0 1.668.649 3.109 1.876 4.156l.017.015c1.19.983 2.706 1.482 4.509 1.482 1.265 0 2.358-.245 3.25-.73l.008-.004c.232-.125.454-.267.665-.424.296-.201.547-.46.739-.763.075-.113.139-.218.192-.313.033.043.066.084.095.116.057.065.11.122.155.172l.06.063c.157.167.231.233.231.233a6.585 6.585 0 0 0 3.52 1.734l.736 1.392a.538.538 0 0 0 .75.209.539.539 0 0 0 .198-.209l.7-1.308a.536.536 0 0 0 .056-.162c1.27-.28 2.429-.93 3.333-1.867a6.644 6.644 0 0 0 1.748-3.406.539.539 0 0 0 .113-.044l1.28-.679a.538.538 0 0 0 .002-.948zM16.594 9.352l-3.201 8.261c-.11.29-.413.449-.906.476h-.154c-.41 0-.712-.073-.902-.218a.603.603 0 0 1-.2-.262l-1.6-4.548-1.58 4.527a.624.624 0 0 1-.276.322c-.197.119-.486.178-.867.179-.053 0-.104 0-.154-.005-.477-.029-.772-.194-.885-.496l-3.201-8.24a.895.895 0 0 1-.104-.397c0-.306.194-.563.582-.771a2.322 2.322 0 0 1 1.164-.334c.402 0 .658.146.769.438l2.078 5.924 1.56-5.152c.097-.317.342-.495.736-.534a1.73 1.73 0 0 1 .344-.002c.4.037.65.216.748.536l1.538 5.173 2.1-5.945c.11-.292.367-.438.769-.438.404.008.798.123 1.143.334.057.031.113.066.166.104a.949.949 0 0 1 .393.5.67.67 0 0 1 .026.188.753.753 0 0 1-.086.38zm3.957 7.656c0 .209-.139.403-.416.584-.277.185-.603.28-.935.271a1.75 1.75 0 0 1-.957-.25c-.249-.18-.374-.383-.374-.605v-8.22c0-.24.115-.434.345-.583l.03-.02c.249-.153.568-.23.956-.229.388 0 .706.077.956.23.264.152.395.354.395.604v8.218zm-.333-11.661a1.424 1.424 0 0 1-1.018.396c-.391.009-.77-.133-1.06-.396a1.234 1.234 0 0 1-.31-1.424c.072-.158.177-.3.31-.412a1.52 1.52 0 0 1 1.06-.396 1.416 1.416 0 0 1 1.018.396 1.169 1.169 0 0 1 .436.918c0 .347-.145.653-.436.918zm8.138 4.276a.571.571 0 0 1-.499.292h-2.536v7.114c0 .25-.138.452-.415.605-.293.16-.623.24-.956.23a1.763 1.763 0 0 1-.936-.23c-.25-.154-.374-.355-.374-.605V6.265c0-1.155.353-2.122 1.06-2.9.72-.793 1.587-1.19 2.598-1.19h1.227a.906.906 0 0 1 .748.335c.18.223.276.504.27.792.008.295-.087.583-.27.814a.915.915 0 0 1-.748.334h-.666c-.457 0-.831.139-1.122.417-.277.278-.416.647-.416 1.106v1.981h2.536a.567.567 0 0 1 .499.292c.086.139.143.294.166.456a1.5 1.5 0 0 1 .018.233c.006.242-.058.481-.184.688zm3.985 5.654c.037.035.075.07.115.104.443.361 1.032.542 1.766.542a3.372 3.372 0 0 0 1.56-.396c.207-.107.384-.192.532-.255.145-.074.303-.122.465-.142a.793.793 0 0 1 .317.063c.168.077.31.2.41.355.178.219.28.49.292.772 0 .389-.354.778-1.06 1.168-.693.375-1.56.563-2.599.563-1.482 0-2.694-.39-3.637-1.168-.928-.793-1.392-1.829-1.393-3.108V12c0-.291.03-.582.092-.867.06-.274.152-.54.272-.792.184-.38.425-.727.715-1.033a6.66 6.66 0 0 1 .249-.25c.887-.821 1.96-1.231 3.222-1.23 1.178 0 2.183.375 3.014 1.126.845.737 1.268 1.669 1.268 2.795.01.355-.046.71-.167 1.043a.973.973 0 0 1-.478.564 2.339 2.339 0 0 1-.253.117 1.633 1.633 0 0 1-.266.084l-.063.011c-.234.031-.47.045-.706.042h-4.22v.313a1.825 1.825 0 0 0 .553 1.353zm11.743 2.92a5.191 5.191 0 0 1-2.889-.884 5.219 5.219 0 0 1-1.913-2.346 5.241 5.241 0 0 1 1.134-5.689 5.186 5.186 0 0 1 5.67-1.128 5.208 5.208 0 0 1 2.334 1.924 5.236 5.236 0 0 1-2.344 7.73 5.192 5.192 0 0 1-1.995.396l.003-.003z" fill="#fff"/>
</svg>
