<svg width="auto" height="1.5rem" viewBox="0 0 3406 1383" fill="none" xmlns="http://www.w3.org/2000/svg">
<path d="M2267.24 750.823C2267.55 750.598 2267.85 750.357 2268.14 750.11C2274.54 744.624 2277.74 734.562 2277.74 719.936C2278.16 705.047 2275.17 690.259 2268.99 676.704C2262.8 663.155 2253.6 651.196 2242.08 641.756C2218.54 621.365 2188.18 610.59 2157.05 611.581C2126.41 611.088 2096.65 621.82 2073.38 641.756C2072.47 642.485 2071.57 643.24 2070.69 644.001C2069.47 645.067 2068.28 646.155 2067.12 647.242C2057.45 656.361 2049.82 667.441 2044.74 679.737C2039.68 692.033 2037.28 705.266 2037.72 718.564V756.968H2237.97C2247.72 757.697 2257.5 755.8 2266.28 751.482C2266.6 751.273 2266.93 751.053 2267.24 750.823Z" fill="#333333"/>
<path fill-rule="evenodd" clip-rule="evenodd" d="M3007.2 628.972L2760.32 715.66C2755.08 717.509 2750.33 720.52 2746.41 724.458C2742.5 728.401 2739.53 733.175 2737.72 738.425L2652.51 986.739C2651.24 990.441 2650.51 994.293 2650.33 998.167C2650.16 1001.91 2650.5 1005.67 2651.36 1009.35C2653.12 1016.84 2656.95 1023.69 2662.43 1029.1C2667.9 1034.51 2674.8 1038.27 2682.31 1039.94C2685.01 1040.54 2687.76 1040.86 2690.5 1040.9C2695.38 1040.98 2700.26 1040.18 2704.91 1038.53L2951.79 950.36C2954.19 949.519 2956.5 948.431 2958.66 947.119C2960.47 946.02 2962.18 944.767 2963.77 943.368C2964.37 942.843 2964.95 942.302 2965.52 941.74C2969.39 937.877 2972.35 933.194 2974.17 928.035L3059.21 681.151C3061.77 673.892 3062.22 666.053 3060.53 658.547C3058.83 651.041 3055.04 644.162 3049.61 638.713C3048.94 638.038 3048.25 637.389 3047.53 636.768C3042.47 632.348 3036.38 629.24 3029.81 627.729C3022.31 626.01 3014.47 626.438 3007.2 628.972ZM2854.68 888.312C2850.4 888.312 2846.15 887.793 2842.01 886.78C2840.51 886.41 2839.02 885.976 2837.55 885.478C2836.47 885.109 2835.4 884.707 2834.34 884.267C2832.26 883.405 2830.24 882.414 2828.3 881.299C2826.95 880.528 2825.64 879.697 2824.36 878.813C2821.77 877.013 2819.33 874.982 2817.09 872.743C2812.16 867.803 2808.24 861.942 2805.57 855.496C2802.9 849.046 2801.52 842.129 2801.52 835.148C2801.52 828.167 2802.9 821.255 2805.57 814.805C2806.79 811.847 2808.28 809.018 2810 806.345C2812.04 803.178 2814.42 800.237 2817.09 797.558C2822.03 792.624 2827.89 788.707 2834.34 786.034C2840.79 783.366 2847.7 781.989 2854.68 781.989C2861.66 781.989 2868.58 783.366 2875.03 786.034C2881.48 788.707 2887.34 792.624 2892.28 797.558C2897.21 802.498 2901.13 808.354 2903.8 814.805C2904.58 816.696 2905.26 818.63 2905.82 820.596C2906.11 821.646 2906.38 822.702 2906.61 823.768C2907.1 825.97 2907.44 828.199 2907.64 830.444C2907.78 832.003 2907.85 833.573 2907.85 835.148C2907.85 842.129 2906.47 849.046 2903.8 855.496C2901.13 861.942 2897.21 867.803 2892.28 872.743C2887.34 877.677 2881.48 881.594 2875.03 884.267C2868.58 886.936 2861.66 888.312 2854.68 888.312Z" fill="#333333"/>
<path fill-rule="evenodd" clip-rule="evenodd" d="M3306.1 756.968L3386.47 800.033C3392.25 803.109 3397.08 807.7 3400.45 813.315C3402.61 816.932 3404.12 820.886 3404.91 824.995C3405.35 827.261 3405.57 829.576 3405.56 831.906C3405.55 838.454 3403.74 844.872 3400.35 850.466C3396.96 856.064 3392.1 860.635 3386.3 863.678L3300.39 909.106C3297.97 910.381 3295.41 911.377 3292.76 912.069C3276.84 997.942 3235.97 1077.23 3175.25 1140C3114.52 1202.78 3036.65 1246.28 2951.35 1265.06C2951.04 1266.99 2950.57 1268.89 2949.94 1270.74C2949.31 1272.56 2948.54 1274.33 2947.62 1276.03L2900.6 1363.81C2897.51 1369.56 2892.92 1374.37 2887.31 1377.72C2881.7 1381.08 2875.29 1382.85 2868.76 1382.85C2862.22 1382.85 2855.81 1381.08 2850.2 1377.72C2844.59 1374.37 2840 1369.56 2836.91 1363.81L2787.53 1270.54C2683.7 1254.38 2588.98 1201.89 2520.24 1122.41C2517.61 1126.71 2514.81 1130.9 2511.85 1134.97C2507.5 1140.97 2502.81 1146.73 2497.8 1152.2C2474.37 1176.7 2447.09 1197.19 2417.04 1212.88H2416.39C2350.33 1248.54 2273.96 1263.08 2192.76 1263.08C2075.03 1263.08 1968.81 1231.92 1883.01 1161.26L1882.35 1160.7L1881.69 1160.1C1794.62 1086.15 1751.12 986.787 1751.12 872.18V755.597C1751.12 746.322 1751.44 737.22 1752.1 728.165H1720.89V1086.04C1720.89 1153.08 1679.68 1197.9 1637.66 1221.33C1601.9 1241.2 1561.54 1251.31 1520.64 1250.63C1478.87 1251.46 1437.69 1240.67 1401.69 1219.46C1387.25 1210.68 1374.18 1199.8 1362.91 1187.2C1352.94 1197.5 1341.91 1206.69 1329.99 1214.63C1293.73 1238.82 1251 1251.46 1207.42 1250.9C1164.51 1251.6 1122.28 1240.01 1085.74 1217.49L1082.83 1215.68L1080.09 1213.7C1046.95 1189.78 1009.92 1147.32 1009.92 1084.94V950.087L926.47 1164.6C891.962 1252.77 803.083 1265.88 754.366 1265.88C706.965 1265.88 614.63 1254.41 579.462 1164.6L578.804 1162.9L576.499 1156.32L574.964 1160.65L574.525 1161.75C539.851 1254.36 444.884 1265.99 396.385 1265.99C344.595 1265.99 258.623 1250.02 225.376 1162.68L15.8012 625.024C5.53184 603.239 0.1393 579.483 0 555.4C0 478.924 51.6256 432.291 94.9132 408.696C134.41 385.684 179.227 373.372 224.938 372.981C255.227 372.51 285.117 379.919 311.677 394.487C342.304 411.878 365.857 439.47 378.225 472.447L378.719 473.765L405.109 548.762L410.595 530.219C421.794 492.876 446.652 461.126 480.216 441.286C509.343 424.79 542.373 416.432 575.841 417.091C609.292 416.443 642.302 424.795 671.414 441.286C704.99 461.105 729.853 492.865 741.034 530.219V530.658L746.521 548.875L773.073 473.877L773.568 472.667C785.886 439.62 809.447 411.964 840.116 394.546C866.673 379.967 896.566 372.558 926.854 373.035C972.588 373.576 1017.38 386.14 1056.72 409.467C1062.2 412.596 1068.07 416.105 1073.56 420.054C1075.21 418.806 1076.88 417.6 1078.56 416.437C1079.61 415.709 1080.67 414.996 1081.73 414.294C1075.42 409.708 1069.35 404.779 1063.57 399.534L1062.59 398.661L1061.6 397.723C1042.23 379.919 1026.77 358.296 1016.17 334.218C1005.58 310.14 1000.09 284.129 1000.04 257.822C999.912 231.029 1005.52 204.508 1016.49 180.055C1027.45 155.608 1043.53 133.786 1063.63 116.057C1102.93 80.4661 1154.24 61.0444 1207.26 61.6873C1259.39 61.1194 1309.75 80.5572 1347.98 116.004C1363.02 129.103 1375.97 144.421 1386.39 161.432C1397.38 144.662 1409.69 128.793 1423.2 113.973C1490.02 40.5137 1575.99 0.0254416 1675.57 0.0254416H1756.55C1782.24 -0.419248 1807.69 4.97061 1831 15.7985C1854.3 26.6211 1874.84 42.5925 1891.07 62.5124C1918.88 96.7911 1933.87 139.68 1933.48 183.816C1934.04 228.393 1919.05 271.774 1891.07 306.486C1874.84 326.406 1854.3 342.378 1831 353.206C1807.69 364.028 1782.24 369.424 1756.55 368.979H1720.89V379.951H1778.49C1803.56 379.925 1828.23 386.306 1850.14 398.489C1872.05 410.673 1890.49 428.257 1903.69 449.57C1904.73 451.214 1905.77 452.865 1906.76 454.509C1980.17 399.153 2066.3 371.722 2161.22 371.722C2264.19 371.722 2356.8 405.24 2432.84 473.326C2461.53 498.132 2486.12 527.315 2505.7 559.788C2575.86 469.741 2678.05 410.222 2790.99 393.608C2791.61 391.937 2792.34 390.303 2793.18 388.727L2838.5 304.349C2839.95 301.622 2841.75 299.104 2843.82 296.853C2846.14 294.341 2848.82 292.16 2851.78 290.387C2854.97 288.474 2858.42 287.076 2862.01 286.224C2864.73 285.581 2867.53 285.249 2870.35 285.249C2876.89 285.249 2883.31 287.022 2888.92 290.387C2894.53 293.751 2899.11 298.579 2902.2 304.349L2950.14 394.765C2950.91 396.159 2951.56 397.61 2952.12 399.095C3037.44 418.018 3115.29 461.673 3175.92 524.604C3236.56 587.536 3277.3 666.948 3293.04 752.907C3297.62 753.389 3302.05 754.772 3306.1 756.968ZM823.986 1124.55L1035.21 581.407C1039.19 573.804 1041.13 565.296 1040.86 556.718C1040.85 552.545 1040.28 548.392 1039.16 544.374C1034.54 530.766 1025.4 519.145 1013.26 511.456C1011.17 510.085 1009.06 508.713 1006.87 507.352C1005.39 506.426 1003.87 505.509 1002.29 504.599C979.517 490.77 953.494 483.2 926.854 482.653C900.338 482.653 883.421 492.254 876.106 511.456L737.577 902.355L636.081 562.205C629.607 541.176 613.148 529.453 586.704 527.037C583.194 526.544 579.846 526.544 575.732 526.544C571.617 526.544 567.667 526.763 563.991 527.09C537.949 529.689 521.747 541.395 515.382 562.205L412.514 900.983L275.357 511.456C268.006 492.254 251.089 482.653 224.609 482.653C197.516 483.05 171.014 490.626 147.8 504.599C122.199 518.277 109.396 535.196 109.396 555.347C109.605 564.45 111.955 573.381 116.254 581.407L327.477 1123.18C334.939 1143.08 354.414 1153.96 385.907 1155.82C389.143 1156.1 392.545 1156.1 396.055 1156.1C421.147 1156.13 440.22 1152.22 453.277 1144.36C461.624 1139.63 468.064 1132.14 471.492 1123.18L575.732 825.547L681.343 1124.55C684.03 1131.41 688.592 1137.38 694.511 1141.78C707.092 1151.32 726.934 1156.1 754.036 1156.1C757.493 1156.1 760.894 1155.82 764.131 1155.82C796.5 1154.1 816.452 1143.68 823.986 1124.55ZM1268.87 1123.18C1287.16 1111.29 1296.3 1098.49 1296.3 1084.77V544.487C1296.3 528.028 1287.58 514.746 1270.24 504.711C1253.78 494.649 1232.75 489.624 1207.15 489.624C1181.55 489.624 1160.52 494.649 1144.06 504.711L1142.03 505.97C1126.88 515.791 1119.37 528.628 1119.37 544.374V1084.77C1119.37 1099.42 1127.6 1112.65 1144.06 1124.55C1163.08 1135.97 1184.98 1141.68 1207.15 1141.01C1229.07 1141.56 1250.62 1135.33 1268.87 1123.18ZM1243.35 337.797C1254.89 333.329 1265.42 326.621 1274.36 318.065C1293.56 300.727 1303.16 280.614 1303.16 257.715C1303.22 246.137 1300.66 234.693 1295.67 224.24C1290.68 213.793 1283.4 204.604 1274.36 197.366C1265.42 188.81 1254.89 182.102 1243.35 177.634C1231.82 173.16 1219.52 171.011 1207.15 171.306C1181.35 170.685 1156.3 180.018 1137.2 197.366C1128.48 204.792 1121.5 214.05 1116.75 224.481C1112.01 234.913 1109.63 246.26 1109.77 257.715C1109.81 269.143 1112.28 280.432 1117.01 290.837C1121.73 301.236 1128.62 310.521 1137.2 318.065C1156.3 335.413 1181.35 344.746 1207.15 344.124C1219.52 344.419 1231.82 342.271 1243.35 337.797ZM1797.51 613.312C1803.29 609.937 1808.07 605.077 1811.35 599.237C1819.74 585.661 1823.98 569.925 1823.54 553.975C1823.56 548.848 1823.16 543.726 1822.33 538.668C1820.83 528.022 1817.09 517.811 1811.35 508.713C1808.9 504.352 1805.62 500.532 1801.7 497.473C1800.37 496.439 1798.97 495.49 1797.51 494.639C1791.72 491.263 1785.14 489.495 1778.44 489.511H1611.11V359.212C1611.11 329.037 1620.25 304.804 1638.54 286.518C1657.74 268.232 1682.43 259.087 1712.6 259.087H1756.49C1765.86 259.515 1775.2 257.758 1783.77 253.949C1792.35 250.139 1799.91 244.385 1805.87 237.142C1817.93 221.969 1824.24 203.024 1823.7 183.65C1824.09 164.716 1817.77 146.259 1805.87 131.53C1799.91 124.287 1792.35 118.533 1783.77 114.723C1775.2 110.914 1765.86 109.157 1756.49 109.585H1675.57C1608.82 109.585 1551.67 135.645 1504.12 187.765C1457.49 239.006 1434.17 302.559 1434.17 378.414V1086.15C1434.17 1102.6 1442.4 1115.87 1458.86 1125.92C1477.64 1136.57 1499.01 1141.79 1520.58 1141.01C1542.58 1141.66 1564.35 1136.45 1583.67 1125.92C1601.96 1115.87 1611.11 1102.6 1611.11 1086.15V618.439H1778.44C1785.14 618.461 1791.72 616.687 1797.51 613.312ZM2081.61 977.792C2078.98 975.595 2076.45 973.291 2074.09 970.934C2062.17 959.452 2052.77 945.619 2046.48 930.306C2040.19 914.999 2037.15 898.546 2037.55 882.001V861.427H2315.98C2331.58 861.647 2347.16 860.731 2362.62 858.684L2366.73 857.972C2372.73 856.648 2378.61 854.811 2384.29 852.485C2387.59 851.205 2390.84 849.807 2394.04 848.29C2396.4 847.176 2398.73 845.992 2401.02 844.749C2416.02 837.066 2427.37 823.747 2432.57 807.716C2440.52 785.755 2444.25 762.487 2443.54 739.138C2443.54 665.035 2415.65 603.775 2359.87 555.347C2305.01 505.97 2238.72 481.282 2161 481.282C2077.79 481.282 2006.92 508.258 1948.4 562.205C1942.7 567.584 1937.21 573.07 1931.94 578.664C1912.82 598.707 1896.94 621.6 1884.87 646.53C1876.9 663.139 1870.86 680.61 1866.88 698.596C1862.77 717.316 1860.73 736.432 1860.79 755.597V872.18C1860.82 956.302 1891.46 1024.43 1952.68 1076.54C2014.9 1127.75 2094.91 1153.35 2192.71 1153.35C2261.29 1153.35 2318.44 1141.01 2364.16 1116.32C2410.79 1090.72 2434.11 1065.12 2434.11 1039.51C2434.14 1023.05 2427.74 1006.14 2414.9 988.764C2408.28 978.563 2398.88 970.473 2387.8 965.447C2384.9 964.22 2381.88 963.261 2378.8 962.597C2376.22 962.04 2373.59 961.665 2370.96 961.477C2369.61 961.381 2368.25 961.333 2366.9 961.333C2356.2 962.667 2345.81 965.822 2336.17 970.66C2326.45 974.829 2314.74 980.406 2301.06 987.393C2269.37 1004.25 2234.08 1013.18 2198.2 1013.45C2149.73 1013.41 2110.87 1001.53 2081.61 977.792ZM2722.31 1155.02C2764.78 1172.58 2810.28 1181.59 2856.22 1181.55C2949.01 1181.63 3038.04 1144.83 3103.71 1079.28C3169.38 1013.72 3206.32 924.761 3206.41 831.965C3206.32 739.17 3169.38 650.21 3103.71 584.653C3038.04 519.097 2949.01 482.305 2856.22 482.38C2810.28 482.343 2764.78 491.354 2722.31 508.906C2679.85 526.453 2641.26 552.196 2608.75 584.659C2576.24 617.121 2550.44 655.67 2532.82 698.103C2515.21 740.536 2506.12 786.023 2506.08 831.965C2506.12 877.908 2515.21 923.4 2532.82 965.833C2550.44 1008.27 2576.24 1046.81 2608.75 1079.28C2641.26 1111.73 2679.85 1137.48 2722.31 1155.02Z" fill="#333333"/>
</svg>
